<svg
   version="1.1"
   id="Layer_1"
   viewBox="0 0 427.988 224.86113"
   xml:space="preserve"
   width="512"
   height="269"
   sodipodi:docname="grasshopper.svg"
   inkscape:version="1.1.2 (0a00cf5339, 2022-02-04)"
   xmlns:inkscape="http://www.inkscape.org/namespaces/inkscape"
   xmlns:sodipodi="http://sodipodi.sourceforge.net/DTD/sodipodi-0.dtd"
   xmlns="http://www.w3.org/2000/svg"
   xmlns:svg="http://www.w3.org/2000/svg"><defs
   id="defs73" /><sodipodi:namedview
   id="namedview71"
   pagecolor="#ffffff"
   bordercolor="#666666"
   borderopacity="1.0"
   inkscape:pageshadow="2"
   inkscape:pageopacity="0.0"
   inkscape:pagecheckerboard="0"
   showgrid="false"
   height="511px"
   inkscape:zoom="0.98470144"
   inkscape:cx="255.40737"
   inkscape:cy="118.30997"
   inkscape:window-width="1382"
   inkscape:window-height="863"
   inkscape:window-x="53"
   inkscape:window-y="36"
   inkscape:window-maximized="0"
   inkscape:current-layer="Layer_1" />
<g
   id="g68"
   transform="translate(1.2538711,-101.56348)">
	<path
   style="fill:#77bc1f"
   d="M 368.578,162.501 H 86.342 c -14.695,0 -26.611,11.914 -26.611,26.612 0,4.284 1.02,8.328 2.818,11.913 7.504,15.901 38.953,53.135 55.873,66.726 0.377,0.311 0.77,0.604 1.154,0.906 0.072,0.057 0.148,0.12 0.223,0.174 v 0 c 10.061,7.82 22.691,12.49 36.42,12.49 h 212.359 c 32.811,0 59.41,-26.6 59.41,-59.409 0,-32.813 -26.599,-59.412 -59.41,-59.412 z"
   id="path2" />
	<g
   id="g14">
		<path
   style="fill:#218649"
   d="m 10.887,162.215 c 1.875,29.537 26.41,52.917 56.422,52.917 h 212.85 c 29.06,0 52.617,-23.559 52.617,-52.619 z"
   id="path4" />
		<path
   style="fill:#77bc1f"
   d="M 368.578,162.501 H 86.342 c -14.695,0 -26.611,11.914 -26.611,26.612 0,4.284 1.02,8.328 2.818,11.913 7.504,15.901 38.953,53.135 55.873,66.726 0.377,0.311 0.77,0.604 1.154,0.906 0.072,0.057 0.148,0.12 0.223,0.174 v 0 c 10.061,7.82 22.691,12.49 36.42,12.49 h 212.359 c 32.811,0 59.41,-26.6 59.41,-59.409 0,-32.813 -26.599,-59.412 -59.41,-59.412 z"
   id="path6" />
		<path
   style="opacity:0.3;fill:#222222"
   d="m 86.342,162.501 c -14.695,0 -26.611,11.914 -26.611,26.612 0,4.284 1.02,8.328 2.818,11.913 7.504,15.901 38.953,53.135 55.873,66.726 0.377,0.311 0.77,0.604 1.154,0.906 0.072,0.057 0.148,0.12 0.223,0.174 v 0 c 10.061,7.82 22.691,12.49 36.42,12.49 h 91.484 V 162.501 Z"
   id="path8" />
		<path
   style="fill:#218649"
   d="m 10.887,162.215 c 1.875,29.537 26.41,52.917 56.422,52.917 h 212.85 c 29.06,0 52.617,-23.559 52.617,-52.619 z"
   id="path10" />
		<path
   style="opacity:0.2;fill:#222222"
   d="m 10.887,162.215 c 1.875,29.537 26.41,52.917 56.422,52.917 h 180.395 v -52.768 z"
   id="path12" />
	</g>
	<g
   id="g30">
		<path
   style="opacity:0.3;fill:#222222"
   d="m 182.576,225.636 -63.318,-63.32 -73.137,-0.067 c -0.016,3.469 0.1,6.594 0.367,9.069 0.695,7.287 3.832,14.386 9.414,19.967 l 80.512,80.514 c 5.982,5.982 13.707,9.156 21.537,9.524 h 3.094 c 7.828,-0.37 15.551,-3.544 21.529,-9.522 12.748,-12.749 12.752,-33.417 0.002,-46.165 z"
   id="path16" />
		<path
   style="fill:#95d600"
   d="m 48.691,320.305 c -0.643,0 -1.293,-0.043 -1.947,-0.13 C 38.799,319.11 33.221,311.806 34.287,303.86 L 56.201,140.336 c 1.064,-7.945 8.358,-13.517 16.315,-12.46 7.947,1.065 13.525,8.37 12.459,16.315 L 63.059,307.716 c -0.977,7.291 -7.209,12.589 -14.368,12.589 z"
   id="path18" />
		<path
   style="opacity:0.3;fill:#222222"
   d="m 72.516,127.876 c -7.957,-1.057 -15.25,4.515 -16.315,12.46 l -5.834,43.543 c 1.453,2.654 3.285,5.156 5.535,7.405 l 20.07,20.072 9.002,-67.166 c 1.067,-7.944 -4.511,-15.249 -12.458,-16.314 z"
   id="path20" />
		<path
   style="fill:#218649"
   d="M 188.586,219.625 80.928,111.966 c -5.711,-5.711 -14.969,-5.711 -20.68,-0.003 -1.658,1.659 -2.82,3.621 -3.514,5.704 l -0.014,0.004 c -3.266,9.071 -5.514,35.769 -4.223,47.635 0.695,7.288 3.832,14.388 9.414,19.969 l 80.514,80.514 c 12.746,12.747 33.414,12.747 46.158,0.002 12.751,-12.749 12.753,-33.418 0.003,-46.166 z"
   id="path22" />
		<g
   id="g26">
			<path
   style="fill:#95d600"
   d="M 48.674,320.304 H 14.516 C 6.5,320.304 0,313.804 0,305.788 0,297.771 6.5,291.272 14.516,291.272 h 34.158 c 8.016,0 14.516,6.499 14.516,14.516 -10e-4,8.016 -6.501,14.516 -14.516,14.516 z"
   id="path24" />
		</g>
		<rect
   x="17.004"
   y="291.27301"
   style="fill:#218649"
   width="15"
   height="29.033001"
   id="rect28" />
	</g>
	<g
   id="g46">
		<path
   style="opacity:0.3;fill:#222222"
   d="m 245.93,280.341 c -5.531,0 -10.813,-3.176 -13.238,-8.543 l -22.984,-50.884 c -3.297,-7.307 -0.051,-15.903 7.256,-19.203 7.305,-3.3 15.902,-0.054 19.203,7.253 l 22.984,50.885 c 3.299,7.306 0.051,15.902 -7.254,19.203 -1.94,0.875 -3.971,1.289 -5.967,1.289 z"
   id="path32" />
		<path
   style="fill:#95d600"
   d="m 250.805,275.468 c -5.531,0 -10.813,-3.177 -13.238,-8.544 l -22.983,-50.883 c -3.299,-7.308 -0.053,-15.904 7.254,-19.204 7.305,-3.3 15.902,-0.054 19.203,7.253 l 22.984,50.884 c 3.299,7.307 0.051,15.903 -7.254,19.204 -1.939,0.875 -3.968,1.29 -5.966,1.29 z"
   id="path34" />
		<path
   style="opacity:0.3;fill:#222222"
   d="m 259.15,259.849 -22.984,-50.885 c -3.301,-7.307 -11.898,-10.553 -19.203,-7.253 -0.547,0.245 -1.061,0.53 -1.561,0.833 -2.389,3.951 -2.861,8.971 -0.818,13.497 l 22.983,50.883 c 2.426,5.367 7.707,8.544 13.238,8.544 1.998,0 4.027,-0.415 5.967,-1.29 0.545,-0.247 1.061,-0.532 1.561,-0.834 2.388,-3.951 2.86,-8.97 0.817,-13.495 z"
   id="path36" />
		<path
   style="fill:#95d600"
   d="m 208.648,320.306 c -0.945,0 -1.904,-0.093 -2.867,-0.284 -7.859,-1.576 -12.955,-9.225 -11.381,-17.086 l 19.18,-95.722 c 1.574,-7.86 9.23,-12.948 17.084,-11.382 7.859,1.576 12.957,9.225 11.381,17.084 l -19.178,95.724 c -1.383,6.896 -7.443,11.666 -14.219,11.666 z"
   id="path38" />
		<g
   id="g42">
			<path
   style="fill:#95d600"
   d="m 208.635,320.304 h -34.158 c -8.016,0 -14.516,-6.5 -14.516,-14.516 0,-8.017 6.5,-14.516 14.516,-14.516 h 34.158 c 8.016,0 14.516,6.499 14.516,14.516 -0.001,8.016 -6.501,14.516 -14.516,14.516 z"
   id="path40" />
		</g>
		<rect
   x="176.965"
   y="291.27301"
   style="fill:#218649"
   width="15"
   height="29.033001"
   id="rect44" />
	</g>
	<g
   id="g62">
		<path
   style="opacity:0.3;fill:#222222"
   d="m 324.81,280.341 c -5.529,0 -10.813,-3.176 -13.238,-8.543 L 288.59,220.914 c -3.301,-7.307 -0.053,-15.903 7.254,-19.203 7.303,-3.3 15.902,-0.054 19.203,7.253 l 22.984,50.885 c 3.299,7.306 0.051,15.902 -7.254,19.203 -1.939,0.875 -3.97,1.289 -5.967,1.289 z"
   id="path48" />
		<path
   style="fill:#95d600"
   d="m 329.685,275.468 c -5.529,0 -10.813,-3.177 -13.238,-8.544 l -22.982,-50.883 c -3.301,-7.308 -0.053,-15.904 7.254,-19.204 7.305,-3.3 15.902,-0.054 19.203,7.253 l 22.984,50.884 c 3.299,7.307 0.051,15.903 -7.254,19.204 -1.939,0.875 -3.97,1.29 -5.967,1.29 z"
   id="path50" />
		<path
   style="opacity:0.3;fill:#222222"
   d="m 338.031,259.849 -22.984,-50.885 c -3.301,-7.307 -11.9,-10.553 -19.203,-7.253 -0.545,0.245 -1.06,0.53 -1.56,0.833 -2.389,3.951 -2.863,8.971 -0.818,13.497 l 22.982,50.883 c 2.426,5.367 7.709,8.544 13.238,8.544 1.996,0 4.027,-0.415 5.967,-1.29 0.545,-0.247 1.061,-0.532 1.559,-0.834 2.39,-3.951 2.862,-8.97 0.819,-13.495 z"
   id="path52" />
		<path
   style="fill:#95d600"
   d="m 287.531,320.306 c -0.947,0 -1.906,-0.093 -2.869,-0.284 -7.859,-1.576 -12.955,-9.225 -11.381,-17.086 l 19.18,-95.722 c 1.574,-7.86 9.23,-12.948 17.084,-11.382 7.861,1.576 12.957,9.225 11.383,17.084 l -19.18,95.724 c -1.383,6.896 -7.443,11.666 -14.217,11.666 z"
   id="path54" />
		<g
   id="g58">
			<path
   style="fill:#95d600"
   d="m 287.514,320.304 h -34.156 c -8.018,0 -14.518,-6.5 -14.518,-14.516 0,-8.017 6.5,-14.516 14.518,-14.516 h 34.156 c 8.018,0 14.516,6.499 14.516,14.516 -10e-4,8.016 -6.499,14.516 -14.516,14.516 z"
   id="path56" />
		</g>
		<rect
   x="255.84599"
   y="291.27301"
   style="fill:#218649"
   width="15"
   height="29.033001"
   id="rect60" />
	</g>
	<circle
   style="fill:#333e48"
   cx="396.38199"
   cy="194.83501"
   r="6.0479999"
   id="circle64" />
	<path
   style="fill:#218649"
   d="m 363.346,180.411 c -4.143,0 -7.5,-3.357 -7.5,-7.5 0,-35.176 28.617,-63.793 63.791,-63.793 4.143,0 7.5,3.357 7.5,7.5 0,4.143 -3.357,7.5 -7.5,7.5 -26.904,0 -48.791,21.889 -48.791,48.793 0,4.143 -3.358,7.5 -7.5,7.5 z"
   id="path66" />
</g>
</svg>
